<?xml version="1.0" encoding="UTF-8"?>
<!-- Generator: https://ezgif.com/webp-to-svg -->
<svg version="1.1" xmlns="http://www.w3.org/2000/svg" width="209" height="154">
<path d="M0 0 C0.7 0 1.4 0.01 2.11 0.01 C3.21 0.01 3.21 0.01 4.33 0.01 C6.76 0.01 9.19 0.02 11.62 0.03 C13.3 0.03 14.98 0.03 16.66 0.03 C21.09 0.03 25.52 0.04 29.95 0.06 C34.47 0.07 38.99 0.07 43.5 0.08 C52.38 0.09 61.25 0.1 70.12 0.12 C70.39 0.94 70.39 0.94 70.67 1.77 C71.04 2.84 71.04 2.84 71.43 3.94 C71.67 4.64 71.92 5.35 72.17 6.08 C73.21 8.32 74.21 9.57 76.12 11.12 C77.06 11.35 78.01 11.58 78.99 11.81 C82.99 13.49 83.88 15.49 85.97 19.16 C87.99 22.62 89.89 24.75 93.74 25.94 C94.52 26.33 95.31 26.72 96.12 27.12 C97.24 30.56 97.24 30.56 98.12 34.12 C99.18 36.1 99.18 36.1 101.12 37.12 C103.44 37.52 105.77 37.86 108.12 38.12 C110.15 40.16 109.37 44.3 109.43 47.1 C109.45 47.89 109.47 48.69 109.5 49.51 C109.56 52.07 109.62 54.63 109.68 57.19 C109.72 58.92 109.77 60.65 109.81 62.38 C109.92 66.63 110.02 70.87 110.12 75.12 C110.83 75.19 111.54 75.25 112.27 75.31 C113.65 75.43 113.65 75.43 115.05 75.56 C115.97 75.64 116.89 75.72 117.83 75.81 C120.12 76.12 120.12 76.12 121.12 77.12 C121.32 79.67 121.44 82.22 121.54 84.78 C121.73 85.55 121.92 86.33 122.12 87.12 C124.07 88.28 124.07 88.28 126.12 89.12 C127.22 92.43 126.94 92.93 126.12 96.12 C126.08 98.12 126.07 100.12 126.12 102.12 C124.14 103.11 124.14 103.11 122.12 104.12 C122.08 105.15 122.08 105.15 122.04 106.2 C121.92 109.3 121.8 112.4 121.68 115.5 C121.64 116.58 121.6 117.66 121.56 118.77 C121.52 119.8 121.48 120.84 121.43 121.9 C121.38 123.33 121.38 123.33 121.32 124.79 C121.12 127.12 121.12 127.12 120.12 129.12 C117.83 129.54 117.83 129.54 115.05 129.75 C113.67 129.86 113.67 129.86 112.27 129.98 C111.56 130.02 110.85 130.07 110.12 130.12 C110.06 130.83 109.99 131.54 109.93 132.28 C109.85 133.2 109.76 134.11 109.68 135.06 C109.6 135.98 109.52 136.89 109.43 137.84 C109.12 140.12 109.12 140.12 108.12 141.12 C106.18 141.25 104.25 141.3 102.31 141.33 C101.07 141.35 99.83 141.37 98.55 141.39 C97.19 141.41 95.82 141.42 94.46 141.44 C93.07 141.46 91.68 141.48 90.29 141.5 C86.63 141.56 82.97 141.61 79.31 141.66 C75.57 141.71 71.84 141.76 68.11 141.82 C60.78 141.93 53.45 142.03 46.12 142.12 C46.06 142.91 45.99 143.69 45.93 144.5 C45.81 146.01 45.81 146.01 45.68 147.56 C45.56 149.08 45.56 149.08 45.43 150.62 C45.12 153.12 45.12 153.12 44.12 154.12 C42.19 154.23 40.27 154.26 38.34 154.27 C36.49 154.28 36.49 154.28 34.6 154.29 C33.24 154.29 31.88 154.29 30.53 154.29 C29.14 154.3 27.76 154.3 26.37 154.3 C23.47 154.31 20.57 154.31 17.66 154.31 C13.93 154.31 10.21 154.32 6.48 154.34 C3.62 154.35 0.76 154.35 -2.1 154.35 C-3.47 154.35 -4.85 154.36 -6.22 154.37 C-8.14 154.38 -10.06 154.37 -11.98 154.37 C-13.62 154.37 -13.62 154.37 -15.3 154.37 C-17.88 154.12 -17.88 154.12 -19.88 152.12 C-20.3 149.74 -20.3 149.74 -20.51 147 C-20.58 146.09 -20.66 145.18 -20.74 144.24 C-20.78 143.54 -20.83 142.84 -20.88 142.12 C-21.55 142.1 -22.21 142.07 -22.89 142.05 C-25.87 141.93 -28.84 141.81 -31.82 141.69 C-32.86 141.65 -33.9 141.61 -34.98 141.57 C-35.97 141.53 -36.95 141.48 -37.97 141.44 C-39.35 141.39 -39.35 141.39 -40.75 141.33 C-42.88 141.12 -42.88 141.12 -43.88 140.12 C-43.96 138.44 -43.97 136.75 -43.95 135.06 C-43.94 134.14 -43.93 133.22 -43.92 132.28 C-43.91 131.57 -43.9 130.86 -43.88 130.12 C-45.04 130.05 -45.04 130.05 -46.22 129.98 C-47.22 129.9 -48.23 129.83 -49.26 129.75 C-50.76 129.65 -50.76 129.65 -52.28 129.54 C-54.88 129.12 -54.88 129.12 -56.88 127.12 C-57.2 124.88 -57.2 124.88 -57.3 122.12 C-57.34 121.13 -57.38 120.14 -57.42 119.13 C-57.45 118.1 -57.48 117.06 -57.51 116 C-57.55 114.96 -57.59 113.92 -57.63 112.85 C-57.72 110.27 -57.81 107.7 -57.88 105.12 C-58.67 105.06 -59.45 105 -60.26 104.94 C-61.77 104.82 -61.77 104.82 -63.32 104.69 C-64.84 104.57 -64.84 104.57 -66.38 104.44 C-68.88 104.12 -68.88 104.12 -69.88 103.12 C-70.12 101.28 -70.3 99.42 -70.45 97.56 C-70.57 96.04 -70.57 96.04 -70.7 94.5 C-70.76 93.71 -70.82 92.93 -70.88 92.12 C-71.95 92.05 -71.95 92.05 -73.04 91.98 C-73.96 91.9 -74.87 91.83 -75.82 91.75 C-76.74 91.68 -77.65 91.61 -78.6 91.54 C-79.35 91.4 -80.11 91.27 -80.88 91.12 C-82.52 87.85 -82 84.22 -81.98 80.62 C-81.98 79.78 -81.98 78.94 -81.98 78.07 C-81.97 75.38 -81.96 72.69 -81.95 70 C-81.94 68.18 -81.94 66.36 -81.93 64.53 C-81.92 60.06 -81.9 55.59 -81.88 51.12 C-75.18 48.22 -75.18 48.22 -72.51 47.37 C-70.47 46.09 -70.47 46.09 -70.2 42.56 C-70.09 41.43 -69.99 40.29 -69.88 39.12 C-68.14 37.38 -65.69 37.89 -63.32 37.81 C-62.19 37.77 -61.07 37.72 -59.91 37.68 C-58.73 37.64 -57.54 37.6 -56.32 37.56 C-55.13 37.52 -53.95 37.48 -52.72 37.43 C-49.78 37.32 -46.83 37.22 -43.88 37.12 C-43.9 36.41 -43.91 35.7 -43.92 34.97 C-43.93 34.05 -43.94 33.13 -43.95 32.19 C-43.96 31.27 -43.97 30.35 -43.98 29.41 C-43.88 27.12 -43.88 27.12 -42.88 26.12 C-41.2 26.05 -39.51 26.04 -37.82 26.06 C-36.9 26.07 -35.98 26.08 -35.04 26.09 C-34.33 26.1 -33.62 26.11 -32.88 26.12 C-32.79 24.84 -32.79 24.84 -32.7 23.53 C-32.62 22.43 -32.53 21.33 -32.45 20.19 C-32.37 19.08 -32.28 17.98 -32.2 16.85 C-31.88 14.12 -31.88 14.12 -30.88 13.12 C-29.27 12.98 -27.66 12.9 -26.04 12.84 C-25.06 12.81 -24.08 12.77 -23.07 12.73 C-21.53 12.68 -21.53 12.68 -19.95 12.62 C-17.92 12.56 -15.89 12.48 -13.86 12.41 C-12.5 12.36 -12.5 12.36 -11.11 12.31 C-8.85 12.26 -8.85 12.26 -6.88 11.12 C-6.45 8.8 -6.45 8.8 -6.32 6.12 C-5.93 0.5 -5.78 0.01 0 0 Z " fill="#696049" transform="translate(81.88401794433594,-0.124420166015625)"/>
<path d="M0 0 C24.75 0 49.5 0 75 0 C75.99 2.64 76.98 5.28 78 8 C80.66 11.18 80.66 11.18 83.88 11.69 C87.85 13.36 88.77 15.3 90.83 18.96 C92.3 21.53 94.09 23.74 96 26 C89.85 26.1 89.85 26.1 88 26 C87 25 87 25 86.9 22.71 C86.93 20.14 86.97 17.57 87 15 C83.37 15 79.74 15 76 15 C76 18.63 76 22.26 76 26 C79.63 26.33 83.26 26.66 87 27 C87 30.96 87 34.92 87 39 C82.71 39 78.42 39 74 39 C74.5 51.38 74.5 51.38 75 64 C78.96 64 82.92 64 87 64 C87.33 56.08 87.66 48.16 88 40 C91.96 40 95.92 40 100 40 C100 52.21 100 64.42 100 77 C83.5 77 67 77 50 77 C50 72.71 50 68.42 50 64 C45.71 64 41.42 64 37 64 C37 51.79 37 39.58 37 27 C32.71 27 28.42 27 24 27 C24.33 39.21 24.66 51.42 25 64 C30.44 64.5 30.44 64.5 36 65 C36.5 70.94 36.5 70.94 37 77 C40.96 77.33 44.92 77.66 49 78 C49 81.63 49 85.26 49 89 C45.04 89 41.08 89 37 89 C37 93.29 37 97.58 37 102 C32.71 102 28.42 102 24 102 C24 106.29 24 110.58 24 115 C28.29 115 32.58 115 37 115 C37 119.29 37 123.58 37 128 C40.96 128 44.92 128 49 128 C49 131.63 49 135.26 49 139 C28.54 139 8.08 139 -13 139 C-13 135.04 -13 131.08 -13 127 C-21.25 127 -29.5 127 -38 127 C-38 123.37 -38 119.74 -38 116 C-30.08 115.67 -22.16 115.34 -14 115 C-13.67 111.04 -13.34 107.08 -13 103 C-9.04 103 -5.08 103 -1 103 C-1 98.71 -1 94.42 -1 90 C3.29 90 7.58 90 12 90 C11.5 77.13 11.5 77.13 11 64 C7.7 63.67 4.4 63.34 1 63 C1 59.04 1 55.08 1 51 C-3.62 51 -8.24 51 -13 51 C-13 47.04 -13 43.08 -13 39 C-17.29 39 -21.58 39 -26 39 C-26 35.04 -26 31.08 -26 27 C-17.75 27 -9.5 27 -1 27 C-1 22.71 -1 18.42 -1 14 C11.87 14 24.74 14 38 14 C38 17.96 38 21.92 38 26 C41.63 26 45.26 26 49 26 C48.99 25.15 48.98 24.29 48.96 23.41 C48.96 22.31 48.95 21.2 48.94 20.06 C48.93 18.96 48.91 17.86 48.9 16.72 C49 14 49 14 50 13 C51.78 12.91 53.56 12.89 55.35 12.9 C56.43 12.91 57.51 12.91 58.62 12.91 C60.32 12.92 60.32 12.92 62.06 12.94 C63.77 12.94 63.77 12.94 65.52 12.95 C68.35 12.96 71.17 12.98 74 13 C74 9.37 74 5.74 74 2 C49.25 2 24.5 2 -1 2 C-0.67 1.34 -0.34 0.68 0 0 Z " fill="#FBC205" transform="translate(77,0)"/>
<path d="M0 0 C3.63 0 7.26 0 11 0 C11.5 4.95 11.5 4.95 12 10 C13.16 10.09 13.16 10.09 14.34 10.18 C15.34 10.27 16.34 10.35 17.38 10.44 C18.87 10.56 18.87 10.56 20.4 10.68 C23 11 23 11 25 12 C25.31 13.11 25.62 14.23 25.94 15.38 C27.01 19.47 27.01 19.47 30 22 C32.32 22.4 34.66 22.74 37 23 C39.03 25.03 38.26 29.18 38.32 31.97 C38.34 32.77 38.36 33.57 38.38 34.39 C38.44 36.95 38.5 39.5 38.56 42.06 C38.61 43.79 38.65 45.52 38.69 47.25 C38.8 51.5 38.9 55.75 39 60 C40.07 60.09 40.07 60.09 41.15 60.18 C42.07 60.27 42.99 60.35 43.94 60.44 C44.85 60.52 45.77 60.6 46.71 60.68 C49 61 49 61 50 62 C50.2 64.55 50.32 67.1 50.43 69.65 C50.62 70.43 50.8 71.2 51 72 C52.95 73.16 52.95 73.16 55 74 C56.1 77.31 55.82 77.81 55 81 C54.96 83 54.95 85 55 87 C53.02 87.99 53.02 87.99 51 89 C50.67 96.59 50.34 104.18 50 112 C49.67 112 49.34 112 49 112 C49 104.08 49 96.16 49 88 C24.25 88 -0.5 88 -26 88 C-26 87.67 -26 87.34 -26 87 C-1.25 87 23.5 87 49 87 C49 83.04 49 79.08 49 75 C19.96 75 -9.08 75 -39 75 C-39 74.67 -39 74.34 -39 74 C-35.04 74 -31.08 74 -27 74 C-27 70.37 -27 66.74 -27 63 C-28.28 63.02 -28.28 63.02 -29.59 63.04 C-30.69 63.04 -31.8 63.05 -32.94 63.06 C-34.04 63.07 -35.14 63.09 -36.28 63.1 C-39 63 -39 63 -40 62 C-40.07 59.98 -40.08 57.96 -40.06 55.94 C-40.05 54.83 -40.04 53.73 -40.04 52.59 C-40.02 51.74 -40.01 50.88 -40 50 C-40.78 50.01 -41.56 50.02 -42.37 50.04 C-43.38 50.04 -44.39 50.05 -45.44 50.06 C-46.45 50.07 -47.46 50.09 -48.5 50.1 C-51 50 -51 50 -52 49 C-52.09 46.26 -52.12 43.55 -52.1 40.81 C-52.1 39.99 -52.09 39.17 -52.09 38.32 C-52.09 35.7 -52.08 33.07 -52.06 30.44 C-52.06 28.66 -52.05 26.88 -52.05 25.1 C-52.04 20.74 -52.02 16.37 -52 12 C-47.71 12 -43.42 12 -39 12 C-39 24.21 -39 36.42 -39 49 C-34.71 49 -30.42 49 -26 49 C-26 53.29 -26 57.58 -26 62 C-9.5 62 7 62 24 62 C24 49.79 24 37.58 24 25 C20.04 25 16.08 25 12 25 C12.01 26.72 12.02 28.44 12.04 30.21 C12.04 32.46 12.05 34.7 12.06 36.94 C12.07 38.07 12.08 39.21 12.09 40.38 C12.09 41.46 12.09 42.54 12.1 43.65 C12.1 44.65 12.11 45.65 12.11 46.68 C12 49 12 49 11 50 C9 50.1 7 50.13 5 50.12 C3.91 50.13 2.81 50.13 1.69 50.13 C-1 50 -1 50 -2 49 C-2.09 47.15 -2.11 45.29 -2.1 43.43 C-2.09 42.31 -2.09 41.18 -2.09 40.03 C-2.08 38.25 -2.08 38.25 -2.06 36.44 C-2.06 35.25 -2.05 34.06 -2.05 32.84 C-2.04 29.89 -2.02 26.95 -2 24 C2.29 24 6.58 24 11 24 C11 20.04 11 16.08 11 12 C7.04 12 3.08 12 -1 12 C-0.67 8.04 -0.34 4.08 0 0 Z " fill="#6A3F40" transform="translate(153,15)"/>
<path d="M0 0 C16.83 0 33.66 0 51 0 C51 4.29 51 8.58 51 13 C54.96 13 58.92 13 63 13 C63 20.92 63 28.84 63 37 C59.04 37 55.08 37 51 37 C51 41.29 51 45.58 51 50 C38.46 50 25.92 50 13 50 C13 46.04 13 42.08 13 38 C7.06 38.5 7.06 38.5 1 39 C1 42.63 1 46.26 1 50 C4.63 50.33 8.26 50.66 12 51 C11.67 51.66 11.34 52.32 11 53 C9.19 52.86 7.37 52.71 5.56 52.56 C4.55 52.48 3.54 52.4 2.5 52.32 C0 52 0 52 -1 51 C-1.23 49.15 -1.41 47.3 -1.56 45.44 C-1.69 43.92 -1.69 43.92 -1.82 42.37 C-1.88 41.59 -1.94 40.81 -2 40 C-5.3 39.67 -8.6 39.34 -12 39 C-12 38.34 -12 37.68 -12 37 C-8.04 37 -4.08 37 0 37 C0 24.79 0 12.58 0 0 Z " fill="#FEFEFD" transform="translate(13,52)"/>
<path d="M0 0 C7.92 0 15.84 0 24 0 C24.5 5.45 24.5 5.45 25 11 C28.96 11.33 32.92 11.66 37 12 C37 15.96 37 19.92 37 24 C32.71 24 28.42 24 24 24 C24.5 36.38 24.5 36.38 25 49 C28.96 49 32.92 49 37 49 C37.33 41.08 37.66 33.16 38 25 C41.96 25 45.92 25 50 25 C50 37.21 50 49.42 50 62 C33.5 62 17 62 0 62 C0 57.71 0 53.42 0 49 C-3.96 49 -7.92 49 -12 49 C-12 36.79 -12 24.58 -12 12 C-8.04 12 -4.08 12 0 12 C0 8.04 0 4.08 0 0 Z " fill="#FBFCFC" transform="translate(127,15)"/>
<path d="M0 0 C29.04 0 58.08 0 88 0 C88 3.96 88 7.92 88 12 C63.25 12 38.5 12 13 12 C13 15.96 13 19.92 13 24 C14.87 23.99 16.75 23.99 18.68 23.98 C24.85 23.97 31.02 23.96 37.2 23.95 C40.94 23.94 44.69 23.94 48.44 23.92 C52.05 23.91 55.66 23.91 59.27 23.91 C60.65 23.9 62.03 23.9 63.41 23.89 C65.34 23.89 67.27 23.89 69.2 23.89 C70.29 23.88 71.39 23.88 72.53 23.88 C75 24 75 24 76 25 C76.07 27.35 76.08 29.71 76.06 32.06 C76.05 33.35 76.04 34.64 76.04 35.97 C76.02 36.97 76.01 37.97 76 39 C68.01 38.89 60.02 38.78 52.03 38.66 C48.32 38.61 44.61 38.55 40.9 38.5 C37.31 38.45 33.71 38.4 30.12 38.35 C28.11 38.32 26.09 38.29 24.08 38.27 C16.01 38.14 8.04 37.69 0 37 C0 33.04 0 29.08 0 25 C-4.29 25 -8.58 25 -13 25 C-13 20.71 -13 16.42 -13 12 C-8.71 12 -4.42 12 0 12 C0 8.04 0 4.08 0 0 Z " fill="#420F03" transform="translate(114,90)"/>
<path d="M0 0 C8.25 0.33 16.5 0.66 25 1 C25 5.29 25 9.58 25 14 C29.29 14 33.58 14 38 14 C38 18.29 38 22.58 38 27 C41.96 27 45.92 27 50 27 C50 30.63 50 34.26 50 38 C29.54 38 9.08 38 -12 38 C-12 34.04 -12 30.08 -12 26 C-20.25 26 -28.5 26 -37 26 C-37 22.37 -37 18.74 -37 15 C-29.08 14.67 -21.16 14.34 -13 14 C-12.67 10.04 -12.34 6.08 -12 2 C-8.04 2 -4.08 2 0 2 C0 1.34 0 0.68 0 0 Z " fill="#F47B03" transform="translate(76,101)"/>
<path d="M0 0 C24.75 0 49.5 0 75 0 C75.99 2.64 76.98 5.28 78 8 C80.66 11.18 80.66 11.18 83.88 11.69 C87.85 13.36 88.77 15.3 90.83 18.96 C92.3 21.53 94.09 23.74 96 26 C89.85 26.1 89.85 26.1 88 26 C87 25 87 25 86.9 22.71 C86.93 20.14 86.97 17.57 87 15 C83.37 15 79.74 15 76 15 C76 18.63 76 22.26 76 26 C75.34 26 74.68 26 74 26 C74 22.37 74 18.74 74 15 C66.08 15 58.16 15 50 15 C50 18.96 50 22.92 50 27 C46.04 27 42.08 27 38 27 C38 39.21 38 51.42 38 64 C37.67 64 37.34 64 37 64 C37 51.79 37 39.58 37 27 C32.71 27 28.42 27 24 27 C24.33 39.21 24.66 51.42 25 64 C28.63 64.33 32.26 64.66 36 65 C36.5 70.94 36.5 70.94 37 77 C40.96 77.33 44.92 77.66 49 78 C49 81.63 49 85.26 49 89 C45.04 89 41.08 89 37 89 C37 88.67 37 88.34 37 88 C40.63 88 44.26 88 48 88 C48 85.03 48 82.06 48 79 C47.13 79.06 46.26 79.12 45.37 79.18 C34.78 79.59 34.78 79.59 31.31 76.62 C30.55 75.76 29.79 74.89 29 74 C27.16 71.95 27.16 71.95 25 71 C25.99 69.52 25.99 69.52 27 68 C25.68 68 24.36 68 23 68 C23 54.8 23 41.6 23 28 C15.74 28 8.48 28 1 28 C1.02 29.96 1.04 31.92 1.06 33.94 C1.08 35.96 1.07 37.98 1 40 C0 41 0 41 -2.5 41.1 C-3.51 41.09 -4.52 41.07 -5.56 41.06 C-6.57 41.05 -7.59 41.04 -8.63 41.04 C-9.8 41.02 -9.8 41.02 -11 41 C-10.67 43.64 -10.34 46.28 -10 49 C-7.03 49.33 -4.06 49.66 -1 50 C-1 50.33 -1 50.66 -1 51 C-4.96 51 -8.92 51 -13 51 C-13 47.04 -13 43.08 -13 39 C-17.29 39 -21.58 39 -26 39 C-26 35.04 -26 31.08 -26 27 C-17.75 27 -9.5 27 -1 27 C-1 22.71 -1 18.42 -1 14 C11.87 14 24.74 14 38 14 C38 17.96 38 21.92 38 26 C41.63 26 45.26 26 49 26 C48.99 25.15 48.98 24.29 48.96 23.41 C48.96 22.31 48.95 21.2 48.94 20.06 C48.93 18.96 48.91 17.86 48.9 16.72 C49 14 49 14 50 13 C51.78 12.91 53.56 12.89 55.35 12.9 C56.43 12.91 57.51 12.91 58.62 12.91 C60.32 12.92 60.32 12.92 62.06 12.94 C63.77 12.94 63.77 12.94 65.52 12.95 C68.35 12.96 71.17 12.98 74 13 C74 9.37 74 5.74 74 2 C49.25 2 24.5 2 -1 2 C-0.67 1.34 -0.34 0.68 0 0 Z " fill="#EBBB15" transform="translate(77,0)"/>
<path d="M0 0 C3.96 0 7.92 0 12 0 C13 1 13 1 13.11 4.51 C13.11 6.07 13.11 7.63 13.1 9.19 C13.1 10.01 13.09 10.83 13.09 11.68 C13.09 14.3 13.08 16.93 13.06 19.56 C13.06 21.34 13.05 23.12 13.05 24.9 C13.04 29.26 13.02 33.63 13 38 C13.78 37.99 14.56 37.98 15.37 37.96 C16.89 37.95 16.89 37.95 18.44 37.94 C19.45 37.93 20.46 37.91 21.5 37.9 C24 38 24 38 25 39 C25 42.63 25 46.26 25 50 C0.25 50 -24.5 50 -50 50 C-50 46.37 -50 42.74 -50 39 C-33.5 39 -17 39 0 39 C0 26.13 0 13.26 0 0 Z " fill="#080405" transform="translate(177,39)"/>
<path d="M0 0 C16.83 0 33.66 0 51 0 C51 4.29 51 8.58 51 13 C54.96 13 58.92 13 63 13 C63 13.33 63 13.66 63 14 C60.85 14.03 58.71 14.05 56.56 14.06 C55.37 14.07 54.17 14.09 52.94 14.1 C50 14 50 14 49 13 C49 9.37 49 5.74 49 2 C33.49 2 17.98 2 2 2 C2 9.26 2 16.52 2 24 C4.6 23.75 4.6 23.75 7.25 23.5 C10.54 23.19 13.69 23 17 23 C17 22.01 17 21.02 17 20 C18.32 20 19.64 20 21 20 C21 21.32 21 22.64 21 24 C20.34 24 19.68 24 19 24 C17.41 26.52 16.96 27.68 17.31 30.69 C17.78 32.94 17.78 32.94 19 34 C21 34.09 23 34.11 25 34.1 C26.22 34.09 27.43 34.09 28.69 34.09 C29.96 34.08 31.24 34.07 32.56 34.06 C34.49 34.06 34.49 34.06 36.45 34.05 C39.63 34.04 42.82 34.02 46 34 C40.06 33.67 34.12 33.34 28 33 C28 32.67 28 32.34 28 32 C30.64 32 33.28 32 36 32 C36 31.34 36 30.68 36 30 C33.03 30 30.06 30 27 30 C27 29.67 27 29.34 27 29 C34.36 28 41.57 27.9 49 28 C48.51 26.02 48.51 26.02 48 24 C52.95 24 57.9 24 63 24 C63 28.29 63 32.58 63 37 C59.04 37 55.08 37 51 37 C51 41.29 51 45.58 51 50 C38.46 50 25.92 50 13 50 C13 46.04 13 42.08 13 38 C7.06 38.5 7.06 38.5 1 39 C1 42.63 1 46.26 1 50 C4.63 50.33 8.26 50.66 12 51 C11.67 51.66 11.34 52.32 11 53 C9.19 52.86 7.37 52.71 5.56 52.56 C4.55 52.48 3.54 52.4 2.5 52.32 C0 52 0 52 -1 51 C-1.23 49.15 -1.41 47.3 -1.56 45.44 C-1.69 43.92 -1.69 43.92 -1.82 42.37 C-1.88 41.59 -1.94 40.81 -2 40 C-5.3 39.67 -8.6 39.34 -12 39 C-12 38.34 -12 37.68 -12 37 C-8.04 37 -4.08 37 0 37 C0 24.79 0 12.58 0 0 Z " fill="#FAECD6" transform="translate(13,52)"/>
<path d="M0 0 C24.75 0 49.5 0 75 0 C75 7.92 75 15.84 75 24 C71.04 24 67.08 24 63 24 C62.5 18.06 62.5 18.06 62 12 C41.54 11.67 21.08 11.34 0 11 C0 7.37 0 3.74 0 0 Z " fill="#0C0101" transform="translate(127,103)"/>
<path d="M0 0 C24.75 0 49.5 0 75 0 C75 3.63 75 7.26 75 11 C67.08 11.33 59.16 11.66 51 12 C50.67 15.96 50.34 19.92 50 24 C46.37 24 42.74 24 39 24 C38.5 18.06 38.5 18.06 38 12 C25.46 11.67 12.92 11.34 0 11 C0 7.37 0 3.74 0 0 Z " fill="#040403" transform="translate(76,2)"/>
<path d="M0 0 C24.75 0 49.5 0 75 0 C75 3.96 75 7.92 75 12 C50.25 12 25.5 12 0 12 C0 8.04 0 4.08 0 0 Z " fill="#C60405" transform="translate(127,90)"/>
<path d="M0 0 C8.07 -0.02 16.13 -0.04 24.2 -0.05 C27.94 -0.06 31.69 -0.06 35.44 -0.08 C39.05 -0.09 42.66 -0.09 46.27 -0.09 C47.65 -0.1 49.03 -0.1 50.41 -0.11 C52.34 -0.11 54.27 -0.11 56.2 -0.11 C57.29 -0.12 58.39 -0.12 59.53 -0.12 C62 0 62 0 63 1 C63 4.63 63 8.26 63 12 C42.21 12 21.42 12 0 12 C0 8.04 0 4.08 0 0 Z " fill="#0E0605" transform="translate(64,140)"/>
<path d="M0 0 C8.07 -0.02 16.13 -0.04 24.2 -0.05 C27.94 -0.06 31.69 -0.06 35.44 -0.08 C39.05 -0.09 42.66 -0.09 46.27 -0.09 C47.65 -0.1 49.03 -0.1 50.41 -0.11 C52.34 -0.11 54.27 -0.11 56.2 -0.11 C57.29 -0.12 58.39 -0.12 59.53 -0.12 C62 0 62 0 63 1 C63.1 2.66 63.13 4.33 63.12 6 C63.13 7.36 63.13 7.36 63.13 8.75 C63 11 63 11 62 12 C60.07 12.09 58.13 12.12 56.2 12.11 C54.33 12.11 54.33 12.11 52.43 12.11 C51.07 12.11 49.7 12.1 48.34 12.1 C46.95 12.1 45.56 12.09 44.17 12.09 C40.51 12.09 36.85 12.08 33.19 12.07 C29.46 12.06 25.72 12.05 21.99 12.05 C14.66 12.04 7.33 12.02 0 12 C0 8.04 0 4.08 0 0 Z " fill="#0C0405" transform="translate(127,128)"/>
<path d="M0 0 C12.54 0 25.08 0 38 0 C38 3.96 38 7.92 38 12 C58.46 12 78.92 12 100 12 C100 8.37 100 4.74 100 1 C96.04 1 92.08 1 88 1 C88 0.67 88 0.34 88 0 C92.29 0 96.58 0 101 0 C101 4.29 101 8.58 101 13 C121.46 12.67 141.92 12.34 163 12 C163.33 8.04 163.66 4.08 164 0 C167.96 0 171.92 0 176 0 C176 0.66 176 1.32 176 2 C171.05 2.5 171.05 2.5 166 3 C165.86 4.63 165.71 6.26 165.56 7.94 C165.12 12.88 165.12 12.88 164 14 C162.04 14.13 160.08 14.19 158.12 14.22 C156.23 14.26 156.23 14.26 154.31 14.29 C152.92 14.31 151.54 14.33 150.16 14.35 C148.75 14.37 147.34 14.4 145.93 14.42 C142.97 14.47 140.02 14.52 137.06 14.56 C133.27 14.61 129.47 14.68 125.67 14.74 C122.76 14.79 119.85 14.84 116.94 14.88 C115.54 14.9 114.14 14.93 112.74 14.95 C110.79 14.98 108.83 15.01 106.88 15.04 C105.77 15.05 104.65 15.07 103.51 15.09 C101 15 101 15 100 14 C98.07 13.88 96.13 13.82 94.2 13.79 C92.95 13.77 91.71 13.75 90.43 13.73 C89.07 13.72 87.7 13.7 86.34 13.68 C84.95 13.66 83.56 13.64 82.17 13.62 C78.51 13.57 74.85 13.52 71.19 13.47 C67.46 13.42 63.72 13.36 59.99 13.31 C52.66 13.2 45.33 13.1 38 13 C38 16.96 38 20.92 38 25 C58.79 25 79.58 25 101 25 C100.67 25.66 100.34 26.32 100 27 C91.95 27.05 83.9 27.08 75.85 27.1 C72.11 27.11 68.38 27.13 64.64 27.15 C61.04 27.17 57.43 27.18 53.83 27.19 C52.45 27.19 51.07 27.2 49.69 27.21 C47.77 27.23 45.84 27.23 43.92 27.23 C42.82 27.23 41.72 27.24 40.59 27.24 C38 27 38 27 36 25 C35.59 22.62 35.59 22.62 35.38 19.88 C35.3 18.96 35.23 18.05 35.15 17.12 C35.1 16.42 35.05 15.72 35 15 C34.34 14.97 33.68 14.95 33 14.92 C30.02 14.81 27.04 14.69 24.06 14.56 C23.02 14.52 21.98 14.48 20.91 14.44 C19.92 14.4 18.93 14.36 17.91 14.32 C16.54 14.26 16.54 14.26 15.13 14.21 C13 14 13 14 12 13 C11.93 11.31 11.92 9.62 11.94 7.94 C11.95 7.02 11.96 6.1 11.96 5.15 C11.98 4.44 11.99 3.73 12 3 C10.83 2.93 10.83 2.93 9.63 2.85 C8.11 2.74 8.11 2.74 6.56 2.62 C5.05 2.52 5.05 2.52 3.5 2.41 C2.68 2.28 1.85 2.14 1 2 C0.67 1.34 0.34 0.68 0 0 Z " fill="#914A12" transform="translate(26,127)"/>
<path d="M0 0 C3.3 0 6.6 0 10 0 C10.49 5.45 10.49 5.45 11 11 C14.96 11.33 18.92 11.66 23 12 C23 15.63 23 19.26 23 23 C16.04 23.02 9.08 23.04 2.12 23.05 C-0.25 23.06 -2.62 23.07 -4.99 23.08 C-8.39 23.09 -11.79 23.09 -15.18 23.1 C-16.25 23.1 -17.32 23.11 -18.42 23.11 C-19.4 23.11 -20.38 23.11 -21.39 23.11 C-22.26 23.12 -23.12 23.12 -24.02 23.12 C-26 23 -26 23 -27 22 C-27 18.7 -27 15.4 -27 12 C-18.09 12 -9.18 12 0 12 C0 8.04 0 4.08 0 0 Z " fill="#050404" transform="translate(40,28)"/>
<path d="M0 0 C19.8 0 39.6 0 60 0 C60 3.3 60 6.6 60 10 C40.2 10 20.4 10 0 10 C0 6.7 0 3.4 0 0 Z " fill="#CE0405" transform="translate(128,116)"/>
<path d="M0 0 C1.56 0 3.12 0.01 4.68 0.02 C5.91 0.02 5.91 0.02 7.17 0.02 C9.79 0.03 12.42 0.04 15.05 0.05 C16.83 0.06 18.61 0.06 20.39 0.06 C24.75 0.08 29.12 0.09 33.49 0.11 C33.49 3.74 33.49 7.37 33.49 11.11 C25.24 11.11 16.99 11.11 8.49 11.11 C8.49 15.4 8.49 19.69 8.49 24.11 C4.2 24.11 -0.09 24.11 -4.51 24.11 C-4.54 20.3 -4.56 16.49 -4.57 12.68 C-4.58 11.59 -4.59 10.5 -4.6 9.38 C-4.6 8.34 -4.6 7.31 -4.61 6.24 C-4.61 5.28 -4.62 4.33 -4.62 3.34 C-4.44 -0.36 -3.84 0.12 0 0 Z " fill="#090404" transform="translate(29.510009765625,102.886474609375)"/>
<path d="M0 0 C24.75 0 49.5 0 75 0 C75.99 2.64 76.98 5.28 78 8 C80.66 11.18 80.66 11.18 83.88 11.69 C87.85 13.36 88.77 15.3 90.83 18.96 C92.3 21.53 94.09 23.74 96 26 C89.85 26.1 89.85 26.1 88 26 C87 25 87 25 86.9 22.71 C86.93 20.14 86.97 17.57 87 15 C83.37 15 79.74 15 76 15 C76 18.63 76 22.26 76 26 C75.34 26 74.68 26 74 26 C74 22.37 74 18.74 74 15 C66.08 15 58.16 15 50 15 C50 18.96 50 22.92 50 27 C46.04 27 42.08 27 38 27 C38 39.21 38 51.42 38 64 C37.67 64 37.34 64 37 64 C37 51.79 37 39.58 37 27 C32.71 27 28.42 27 24 27 C24 26.67 24 26.34 24 26 C27.96 26 31.92 26 36 26 C36 22.37 36 18.74 36 15 C24.12 15 12.24 15 0 15 C0 19.29 0 23.58 0 28 C-8.25 28 -16.5 28 -25 28 C-25 31.3 -25 34.6 -25 38 C-21.04 38 -17.08 38 -13 38 C-13 38.33 -13 38.66 -13 39 C-17.29 39 -21.58 39 -26 39 C-26 35.04 -26 31.08 -26 27 C-17.75 27 -9.5 27 -1 27 C-1 22.71 -1 18.42 -1 14 C11.87 14 24.74 14 38 14 C38 17.96 38 21.92 38 26 C41.63 26 45.26 26 49 26 C48.99 25.15 48.98 24.29 48.96 23.41 C48.96 22.31 48.95 21.2 48.94 20.06 C48.93 18.96 48.91 17.86 48.9 16.72 C49 14 49 14 50 13 C51.78 12.91 53.56 12.89 55.35 12.9 C56.43 12.91 57.51 12.91 58.62 12.91 C60.32 12.92 60.32 12.92 62.06 12.94 C63.77 12.94 63.77 12.94 65.52 12.95 C68.35 12.96 71.17 12.98 74 13 C74 9.37 74 5.74 74 2 C49.25 2 24.5 2 -1 2 C-0.67 1.34 -0.34 0.68 0 0 Z " fill="#848079" transform="translate(77,0)"/>
<path d="M0 0 C4.29 0 8.58 0 13 0 C13 12.21 13 24.42 13 37 C8.71 37 4.42 37 0 37 C0 24.79 0 12.58 0 0 Z " fill="#140F06" transform="translate(101,27)"/>
<path d="M0 0 C3.96 0 7.92 0 12 0 C12 12.21 12 24.42 12 37 C8.04 37 4.08 37 0 37 C0 24.79 0 12.58 0 0 Z " fill="#000001" transform="translate(1,52)"/>
<path d="M0 0 C3.09 0.03 6.18 0.07 9.28 0.1 C9.28 4.06 9.28 8.02 9.28 12.1 C21.82 12.1 34.36 12.1 47.28 12.1 C47.28 8.14 47.28 4.18 47.28 0.1 C51.24 0.1 55.2 0.1 59.28 0.1 C59.28 4.39 59.28 8.68 59.28 13.1 C55.32 13.1 51.36 13.1 47.28 13.1 C47.3 15.06 47.32 17.02 47.34 19.04 C47.36 21.06 47.35 23.08 47.28 25.1 C46.28 26.1 46.28 26.1 43.96 26.21 C42.96 26.21 41.96 26.2 40.93 26.2 C39.85 26.19 38.77 26.19 37.66 26.19 C36.52 26.18 35.39 26.17 34.21 26.16 C33.07 26.16 31.93 26.15 30.76 26.15 C27.93 26.13 25.1 26.12 22.28 26.1 C22.28 29.73 22.28 33.36 22.28 37.1 C21.95 37.1 21.62 37.1 21.28 37.1 C21.28 32.81 21.28 28.52 21.28 24.1 C29.53 24.1 37.78 24.1 46.28 24.1 C46.28 20.47 46.28 16.84 46.28 13.1 C45.18 13.13 44.09 13.17 42.96 13.21 C38.86 13.34 34.75 13.46 30.65 13.58 C28.88 13.63 27.11 13.69 25.34 13.75 C4.51 14.42 4.51 14.42 -2.72 13.1 C-3.72 12.1 -3.72 12.1 -3.86 9.63 C-3.85 8.63 -3.85 7.63 -3.85 6.6 C-3.85 5.6 -3.85 4.6 -3.86 3.57 C-3.67 0.09 -3.51 0.13 0 0 Z " fill="#7F400C" transform="translate(16.72265625,89.90234375)"/>
<path d="M0 0 C11.88 0 23.76 0 36 0 C36 3.63 36 7.26 36 11 C24.12 11 12.24 11 0 11 C0 7.37 0 3.74 0 0 Z " fill="#FADEAF" transform="translate(77,15)"/>
<path d="M0 0 C3.96 0 7.92 0 12 0 C12 0.33 12 0.66 12 1 C7.55 1.5 7.55 1.5 3 2 C2.88 3.4 2.75 4.81 2.62 6.25 C2.3 9.92 1.74 11.53 0 15 C-7.59 15 -15.18 15 -23 15 C-23 16.98 -23 18.96 -23 21 C-15.41 20.67 -7.82 20.34 0 20 C2.24 24.48 1 29.99 1 35 C20.8 34.67 40.6 34.34 61 34 C61 31.69 61 29.38 61 27 C60.15 26.94 59.29 26.88 58.41 26.82 C57.31 26.73 56.2 26.65 55.06 26.56 C53.96 26.48 52.86 26.4 51.72 26.32 C49 26 49 26 48 25 C47.93 23.15 47.92 21.29 47.94 19.44 C47.95 18.43 47.96 17.41 47.96 16.37 C47.98 15.59 47.99 14.81 48 14 C47.15 14.01 46.29 14.02 45.41 14.04 C44.31 14.04 43.2 14.05 42.06 14.06 C40.96 14.07 39.86 14.09 38.72 14.1 C36 14 36 14 35 13 C34.93 10.98 34.92 8.96 34.94 6.94 C34.95 5.83 34.96 4.73 34.96 3.59 C34.98 2.74 34.99 1.88 35 1 C35.66 0.67 36.32 0.34 37 0 C37 3.96 37 7.92 37 12 C41.29 12 45.58 12 50 12 C50 16.29 50 20.58 50 25 C53.96 25 57.92 25 62 25 C62 28.63 62 32.26 62 36 C41.54 36 21.08 36 0 36 C0 32.04 0 28.08 0 24 C-8.25 24 -16.5 24 -25 24 C-25 20.37 -25 16.74 -25 13 C-17.08 12.67 -9.16 12.34 -1 12 C-0.67 8.04 -0.34 4.08 0 0 Z " fill="#DB7819" transform="translate(64,103)"/>
<path d="M0 0 C3.96 0 7.92 0 12 0 C12 0.33 12 0.66 12 1 C8.37 1 4.74 1 1 1 C1 4.3 1 7.6 1 11 C4.63 11 8.26 11 12 11 C12 19.58 12 28.16 12 37 C8.04 37 4.08 37 0 37 C0 24.79 0 12.58 0 0 Z " fill="#B2DCD7" transform="translate(115,27)"/>
<path d="M0 0 C7.92 0 15.84 0 24 0 C24 3.96 24 7.92 24 12 C20.19 12.03 16.38 12.05 12.56 12.06 C11.47 12.07 10.39 12.08 9.26 12.09 C8.23 12.09 7.19 12.09 6.13 12.1 C4.69 12.11 4.69 12.11 3.22 12.11 C1 12 1 12 0 11 C0 7.37 0 3.74 0 0 Z " fill="#0D0606" transform="translate(39,128)"/>
<path d="M0 0 C3.63 0 7.26 0 11 0 C12 1 12 1 12.11 3.22 C12.11 4.18 12.1 5.14 12.1 6.13 C12.09 7.16 12.09 8.2 12.09 9.26 C12.08 10.35 12.07 11.44 12.06 12.56 C12.06 13.65 12.05 14.75 12.05 15.87 C12.04 18.58 12.02 21.29 12 24 C8.04 24 4.08 24 0 24 C0 16.08 0 8.16 0 0 Z " fill="#110A04" transform="translate(77,65)"/>
<path d="M0 0 C3.63 0 7.26 0 11 0 C11 7.92 11 15.84 11 24 C7.37 24 3.74 24 0 24 C0 16.08 0 8.16 0 0 Z " fill="#050505" transform="translate(153,40)"/>
<path d="M0 0 C7.92 0 15.84 0 24 0 C24 3.63 24 7.26 24 11 C16.08 11 8.16 11 0 11 C0 7.37 0 3.74 0 0 Z " fill="#050203" transform="translate(52,15)"/>
<path d="M0 0 C7.92 0 15.84 0 24 0 C24 3.63 24 7.26 24 11 C15.93 11.1 8.03 10.8 0 10 C0 6.7 0 3.4 0 0 Z " fill="#FAE0AD" transform="translate(52,28)"/>
<path d="M0 0 C20.79 0 41.58 0 63 0 C63 4.62 63 9.24 63 14 C42.21 13.67 21.42 13.34 0 13 C0 8.71 0 4.42 0 0 Z M1 1 C1 4.3 1 7.6 1 11 C20.8 11 40.6 11 61 11 C61 7.7 61 4.4 61 1 C41.2 1 21.4 1 1 1 Z " fill="#890C0E" transform="translate(127,115)"/>
<path d="M0 0 C4.29 0 8.58 0 13 0 C13.33 3.96 13.66 7.92 14 12 C21.92 12.33 29.84 12.66 38 13 C38 16.96 38 20.92 38 25 C58.79 25 79.58 25 101 25 C100.67 25.66 100.34 26.32 100 27 C91.95 27.05 83.9 27.08 75.85 27.1 C72.11 27.11 68.38 27.13 64.64 27.15 C61.04 27.17 57.43 27.18 53.83 27.19 C52.45 27.19 51.07 27.2 49.69 27.21 C47.77 27.23 45.84 27.23 43.92 27.23 C42.82 27.23 41.72 27.24 40.59 27.24 C38 27 38 27 36 25 C35.59 22.62 35.59 22.62 35.38 19.88 C35.3 18.96 35.23 18.05 35.15 17.12 C35.1 16.42 35.05 15.72 35 15 C34.34 14.97 33.68 14.95 33 14.92 C30.02 14.81 27.04 14.69 24.06 14.56 C23.02 14.52 21.98 14.48 20.91 14.44 C19.92 14.4 18.93 14.36 17.91 14.32 C16.54 14.26 16.54 14.26 15.13 14.21 C13 14 13 14 12 13 C11.93 11.31 11.92 9.62 11.94 7.94 C11.95 7.02 11.96 6.1 11.96 5.15 C11.98 4.44 11.99 3.73 12 3 C10.83 2.93 10.83 2.93 9.63 2.85 C8.11 2.74 8.11 2.74 6.56 2.62 C5.05 2.52 5.05 2.52 3.5 2.41 C2.68 2.28 1.85 2.14 1 2 C0.67 1.34 0.34 0.68 0 0 Z " fill="#7C7B7B" transform="translate(26,127)"/>
<path d="M0 0 C3.96 0 7.92 0 12 0 C12 3.63 12 7.26 12 11 C24.54 11 37.08 11 50 11 C50 11.33 50 11.66 50 12 C33.5 12 17 12 0 12 C0 8.04 0 4.08 0 0 Z " fill="#B2D2D0" transform="translate(127,65)"/>
<path d="M0 0 C16.83 0 33.66 0 51 0 C51 3.96 51 7.92 51 12 C50.67 12 50.34 12 50 12 C50 8.37 50 4.74 50 1 C33.83 1 17.66 1 1 1 C1 12.88 1 24.76 1 37 C4.96 37 8.92 37 13 37 C13 37.33 13 37.66 13 38 C7.06 38.5 7.06 38.5 1 39 C1 42.63 1 46.26 1 50 C4.63 50.33 8.26 50.66 12 51 C11.67 51.66 11.34 52.32 11 53 C9.19 52.86 7.37 52.71 5.56 52.56 C4.55 52.48 3.54 52.4 2.5 52.32 C0 52 0 52 -1 51 C-1.23 49.15 -1.41 47.3 -1.56 45.44 C-1.69 43.92 -1.69 43.92 -1.82 42.37 C-1.88 41.59 -1.94 40.81 -2 40 C-5.3 39.67 -8.6 39.34 -12 39 C-12 38.34 -12 37.68 -12 37 C-8.04 37 -4.08 37 0 37 C0 24.79 0 12.58 0 0 Z " fill="#A4A09D" transform="translate(13,52)"/>
<path d="M0 0 C4.29 0 8.58 0 13 0 C12.67 3.96 12.34 7.92 12 12 C8.04 12 4.08 12 0 12 C0 8.04 0 4.08 0 0 Z " fill="#0A0A0A" transform="translate(165,27)"/>
<path d="M0 0 C3.96 0 7.92 0 12 0 C12 12.21 12 24.42 12 37 C8.04 37 4.08 37 0 37 C0 24.79 0 12.58 0 0 Z M1 2 C0.88 13.38 1.13 24.65 2 36 C4.31 36 6.62 36 9 36 C9.06 35.15 9.12 34.29 9.18 33.41 C9.27 32.31 9.35 31.2 9.44 30.06 C9.52 28.96 9.6 27.86 9.68 26.72 C10 24 10 24 11 23 C11.09 21.44 11.11 19.87 11.1 18.31 C11.09 17.36 11.09 16.42 11.09 15.45 C11.08 14.45 11.07 13.46 11.06 12.44 C11.06 11.44 11.05 10.44 11.05 9.42 C11.04 6.94 11.02 4.47 11 2 C7.7 2 4.4 2 1 2 Z " fill="#171415" transform="translate(1,52)"/>
<path d="M0 0 C3.96 0 7.92 0 12 0 C12 3.96 12 7.92 12 12 C8.04 12 4.08 12 0 12 C0 8.04 0 4.08 0 0 Z " fill="#130806" transform="translate(64,90)"/>
<path d="M0 0 C3.96 0 7.92 0 12 0 C12 3.96 12 7.92 12 12 C8.04 12 4.08 12 0 12 C0 8.04 0 4.08 0 0 Z " fill="#F6E0B7" transform="translate(64,77)"/>
<path d="M0 0 C3.96 0 7.92 0 12 0 C12 3.96 12 7.92 12 12 C8.04 12 4.08 12 0 12 C0 8.04 0 4.08 0 0 Z " fill="#F6E0B6" transform="translate(14,77)"/>
<path d="M0 0 C3.96 0 7.92 0 12 0 C12 3.96 12 7.92 12 12 C8.04 12 4.08 12 0 12 C0 8.04 0 4.08 0 0 Z " fill="#211B0D" transform="translate(114,65)"/>
<path d="M0 0 C3.96 0 7.92 0 12 0 C12 3.96 12 7.92 12 12 C8.04 12 4.08 12 0 12 C0 8.04 0 4.08 0 0 Z " fill="#110B05" transform="translate(64,52)"/>
<path d="M0 0 C3.96 0 7.92 0 12 0 C12 3.96 12 7.92 12 12 C3.5 12.1 3.5 12.1 1 12 C0 11 0 11 -0.1 8.5 C-0.07 5.66 -0.03 2.83 0 0 Z " fill="#CE0609" transform="translate(114,103)"/>
<path d="M0 0 C8.25 0 16.5 0 25 0 C25 4.29 25 8.58 25 13 C41.5 13 58 13 75 13 C75 13.33 75 13.66 75 14 C58.5 14 42 14 25 14 C25 17.96 25 21.92 25 26 C20.71 26 16.42 26 12 26 C12 25.67 12 25.34 12 25 C15.96 25 19.92 25 24 25 C24 21.37 24 17.74 24 14 C23.15 14.01 22.29 14.02 21.41 14.04 C20.31 14.04 19.2 14.05 18.06 14.06 C16.96 14.07 15.86 14.09 14.72 14.1 C12 14 12 14 11 13 C10.93 10.98 10.92 8.96 10.94 6.94 C10.95 5.83 10.96 4.73 10.96 3.59 C10.98 2.74 10.99 1.88 11 1 C7.37 1 3.74 1 0 1 C0 0.67 0 0.34 0 0 Z M12 1 C12 4.96 12 8.92 12 13 C15.96 13 19.92 13 24 13 C24 9.04 24 5.08 24 1 C20.04 1 16.08 1 12 1 Z " fill="#716739" transform="translate(102,64)"/>
<path d="M0 0 C7.92 0 15.84 0 24 0 C23.67 0.66 23.34 1.32 23 2 C15.74 2 8.48 2 1 2 C1.02 3.96 1.04 5.92 1.06 7.94 C1.08 9.96 1.07 11.98 1 14 C0 15 0 15 -2.5 15.1 C-4.02 15.08 -4.02 15.08 -5.56 15.06 C-6.57 15.05 -7.59 15.04 -8.63 15.04 C-9.41 15.02 -10.19 15.01 -11 15 C-10.67 17.64 -10.34 20.28 -10 23 C-7.03 23.33 -4.06 23.66 -1 24 C-1 24.33 -1 24.66 -1 25 C-4.96 25 -8.92 25 -13 25 C-13 21.04 -13 17.08 -13 13 C-9.04 13 -5.08 13 -1 13 C-1.02 11.23 -1.04 9.45 -1.06 7.62 C-1.12 2.25 -1.12 2.25 0 0 Z " fill="#F0C63B" transform="translate(77,26)"/>
<path d="M0 0 C0.66 0 1.32 0 2 0 C2 3.96 2 7.92 2 12 C-10.54 12 -23.08 12 -36 12 C-36 11.67 -36 11.34 -36 11 C-28.74 10.67 -21.48 10.34 -14 10 C-19.45 9.5 -19.45 9.5 -25 9 C-25.33 8.01 -25.66 7.02 -26 6 C-25.34 5.01 -24.68 4.02 -24 3 C-23.01 3.33 -22.02 3.66 -21 4 C-21 4.66 -21 5.32 -21 6 C-14.3 7.03 -7.77 7.1 -1 7 C-0.67 4.69 -0.34 2.38 0 0 Z " fill="#DFC7A1" transform="translate(62,90)"/>
<path d="M0 0 C3.63 0 7.26 0 11 0 C11 3.63 11 7.26 11 11 C7.37 11 3.74 11 0 11 C0 7.37 0 3.74 0 0 Z " fill="#130404" transform="translate(115,116)"/>
<path d="M0 0 C3.63 0 7.26 0 11 0 C11 3.63 11 7.26 11 11 C7.37 11 3.74 11 0 11 C0 7.37 0 3.74 0 0 Z " fill="#120304" transform="translate(115,91)"/>
<path d="M0 0 C3.63 0 7.26 0 11 0 C11 3.63 11 7.26 11 11 C7.37 11 3.74 11 0 11 C0 7.37 0 3.74 0 0 Z " fill="#040404" transform="translate(153,15)"/>
<path d="M0 0 C3.96 0 7.92 0 12 0 C12 3.3 12 6.6 12 10 C8.04 10 4.08 10 0 10 C0 6.7 0 3.4 0 0 Z " fill="#060304" transform="translate(13,91)"/>
<path d="M0 0 C0.68 0.8 1.36 1.61 2.06 2.44 C5.5 5.44 7.54 5.66 12 6 C14.03 8.03 13.26 12.18 13.32 14.97 C13.34 15.77 13.36 16.57 13.38 17.39 C13.44 19.95 13.5 22.5 13.56 25.06 C13.61 26.79 13.65 28.52 13.69 30.25 C13.8 34.5 13.9 38.75 14 43 C15.07 43.09 15.07 43.09 16.15 43.18 C17.07 43.27 17.99 43.35 18.94 43.44 C19.85 43.52 20.77 43.6 21.71 43.68 C24 44 24 44 25 45 C25.2 47.52 25.32 50.03 25.43 52.55 C25.79 55.17 25.79 55.17 28.04 56.82 C28.69 57.21 29.33 57.6 30 58 C28.33 58.04 26.67 58.04 25 58 C22.63 55.63 23.24 48.96 23 46 C19.37 45.67 15.74 45.34 12 45 C11.67 32.79 11.34 20.58 11 8 C7.04 7.67 3.08 7.34 -1 7 C-1 1 -1 1 0 0 Z " fill="#B0B0B0" transform="translate(178,32)"/>
<path d="M0 0 C0.66 0.33 1.32 0.66 2 1 C2.09 4.96 2.14 8.92 2.19 12.88 C2.21 14 2.24 15.13 2.26 16.29 C2.28 17.91 2.28 17.91 2.29 19.55 C2.32 21.05 2.32 21.05 2.34 22.57 C2.23 23.37 2.12 24.17 2 25 C-2.2 27.8 -5 27.14 -10 27 C-10 29.97 -10 32.94 -10 36 C-10.99 36 -11.98 36 -13 36 C-13 32.37 -13 28.74 -13 25 C-8.71 25 -4.42 25 0 25 C0 16.75 0 8.5 0 0 Z " fill="#D5AC23" transform="translate(89,65)"/>
<path d="M0 0 C3.96 0 7.92 0 12 0 C12 0.66 12 1.32 12 2 C8.7 2.33 5.4 2.66 2 3 C1.86 4.63 1.71 6.26 1.56 7.94 C1.12 12.88 1.12 12.88 0 14 C-1.96 14.12 -3.93 14.18 -5.9 14.21 C-7.79 14.24 -7.79 14.24 -9.72 14.27 C-11.11 14.28 -12.49 14.3 -13.88 14.32 C-15.29 14.34 -16.7 14.36 -18.11 14.38 C-21.83 14.43 -25.55 14.48 -29.27 14.53 C-33.07 14.58 -36.86 14.64 -40.65 14.69 C-48.1 14.8 -55.55 14.9 -63 15 C-63 14.34 -63 13.68 -63 13 C-32.31 12.5 -32.31 12.5 -1 12 C-0.67 8.04 -0.34 4.08 0 0 Z " fill="#6B6A6A" transform="translate(190,127)"/>
<path d="M0 0 C3.96 0 7.92 0 12 0 C12 3.96 12 7.92 12 12 C24.21 12 36.42 12 49 12 C49 12.33 49 12.66 49 13 C43.79 13.17 38.58 13.33 33.37 13.48 C31.6 13.54 29.83 13.59 28.07 13.65 C5.79 14.37 5.79 14.37 0 13 C-0.33 12.34 -0.66 11.68 -1 11 C2.96 11 6.92 11 11 11 C11 7.7 11 4.4 11 1 C7.37 1 3.74 1 0 1 C0 0.67 0 0.34 0 0 Z " fill="#554A41" transform="translate(14,90)"/>
<path d="M0 0 C3.96 0 7.92 0 12 0 C12 0.33 12 0.66 12 1 C8.37 1 4.74 1 1 1 C1 4.3 1 7.6 1 11 C4.63 11 8.26 11 12 11 C12 19.58 12 28.16 12 37 C11.67 37 11.34 37 11 37 C11 29.41 11 21.82 11 14 C3.83 14.45 3.83 14.45 1 16 C-0.5 13 -0.09 10.21 -0.06 6.88 C-0.05 5.59 -0.04 4.31 -0.04 2.99 C-0.02 2 -0.01 1.02 0 0 Z " fill="#D7E6E5" transform="translate(115,27)"/>
<path d="M0 0 C0.33 0 0.66 0 1 0 C1 3.96 1 7.92 1 12 C-2.63 12.33 -6.26 12.66 -10 13 C-10.33 25.21 -10.66 37.42 -11 50 C-11.33 50 -11.66 50 -12 50 C-12 37.46 -12 24.92 -12 12 C-5 9 -5 9 -2.62 8.25 C-0.58 6.96 -0.58 6.96 -0.25 3.38 C-0.17 2.26 -0.09 1.15 0 0 Z " fill="#AAAAAB" transform="translate(12,39)"/>
<path d="M0 0 C2.64 0 5.28 0 8 0 C8 3.3 8 6.6 8 10 C5.03 10 2.06 10 -1 10 C-1 9.67 -1 9.34 -1 9 C0.65 9 2.3 9 4 9 C4 8.01 4 7.02 4 6 C2.68 6 1.36 6 0 6 C0 4.02 0 2.04 0 0 Z " fill="#050305" transform="translate(118,66)"/>
<path d="M0 0 C1.98 0 3.96 0 6 0 C5.84 0.72 5.67 1.44 5.5 2.19 C5.02 4.86 4.92 7.29 5 10 C3.35 10 1.7 10 0 10 C0 6.7 0 3.4 0 0 Z " fill="#160101" transform="translate(203,91)"/>
<path d="M0 0 C3.96 0 7.92 0 12 0 C12 0.33 12 0.66 12 1 C8.7 1 5.4 1 2 1 C2 3.97 2 6.94 2 10 C5.3 10.33 8.6 10.66 12 11 C12 11.33 12 11.66 12 12 C10.19 12.03 8.38 12.05 6.56 12.06 C5.55 12.07 4.54 12.09 3.5 12.1 C1 12 1 12 0 11 C-0.14 7.33 -0.04 3.67 0 0 Z " fill="#970B0A" transform="translate(114,103)"/>
<path d="M0 0 C8.25 0 16.5 0 25 0 C24.67 3.96 24.34 7.92 24 12 C23.67 12 23.34 12 23 12 C22.51 7.05 22.51 7.05 22 2 C14.74 1.67 7.48 1.34 0 1 C0 0.67 0 0.34 0 0 Z " fill="#888584" transform="translate(39,140)"/>
<path d="M0 0 C4 5 4 5 8 10 C5.36 10 2.72 10 0 10 C0 6.7 0 3.4 0 0 Z " fill="#EFEFEF" transform="translate(165,16)"/>
<path d="M0 0 C3.96 0 7.92 0 12 0 C12 0.66 12 1.32 12 2 C8.7 2.33 5.4 2.66 2 3 C1.67 6.3 1.34 9.6 1 13 C0.67 13 0.34 13 0 13 C0 8.71 0 4.42 0 0 Z " fill="#928E8F" transform="translate(190,127)"/>
<path d="M0 0 C0.68 0.8 1.36 1.61 2.06 2.44 C5.48 5.42 7.54 5.74 12 6 C11.67 6.66 11.34 7.32 11 8 C7.04 7.67 3.08 7.34 -1 7 C-1 1 -1 1 0 0 Z " fill="#B3B3B3" transform="translate(178,32)"/>
<path d="M0 0 C1.98 -0.03 3.96 -0.05 5.94 -0.06 C7.04 -0.07 8.14 -0.09 9.28 -0.1 C12 0 12 0 13 1 C13.2 3.52 13.32 6.03 13.43 8.55 C13.79 11.17 13.79 11.17 16.04 12.82 C16.69 13.21 17.33 13.6 18 14 C16.33 14.04 14.67 14.04 13 14 C10.63 11.63 11.24 4.96 11 2 C7.37 1.67 3.74 1.34 0 1 C0 0.67 0 0.34 0 0 Z " fill="#807D7A" transform="translate(190,76)"/>
<path d="M0 0 C1.08 0.96 1.08 0.96 2.19 1.94 C4.98 3.99 6.62 4.61 10 5 C10 5.33 10 5.66 10 6 C6.7 6 3.4 6 0 6 C0 4.02 0 2.04 0 0 Z " fill="#E1E1E1" transform="translate(153,7)"/>
</svg>
