<?xml version="1.0" encoding="UTF-8"?>
<!-- Generator: https://ezgif.com/webp-to-svg -->
<svg version="1.1" xmlns="http://www.w3.org/2000/svg" width="111" height="375">
<path d="M0 0 C33.66 0 67.32 0 102 0 C102.62 28.14 102.62 28.14 102.77 38.82 C102.78 39.57 102.79 40.31 102.8 41.08 C103.35 80.78 103.15 120.49 103.13 160.19 C103.12 170.31 103.13 180.43 103.13 190.55 C103.14 200.51 103.14 210.47 103.13 220.43 C103.13 226.3 103.13 232.17 103.14 238.03 C103.15 269.7 102.75 301.34 102 333 C103.32 333.33 104.64 333.66 106 334 C106 347.2 106 360.4 106 374 C98.78 374.66 91.87 375.14 84.66 375.11 C83.7 375.11 82.73 375.11 81.73 375.11 C78.58 375.11 75.42 375.11 72.27 375.1 C70.07 375.1 67.86 375.09 65.66 375.09 C59.89 375.09 54.12 375.08 48.35 375.07 C42.45 375.06 36.55 375.05 30.65 375.05 C19.1 375.04 7.55 375.02 -4 375 C-4.33 361.47 -4.66 347.94 -5 334 C-3.35 334 -1.7 334 0 334 C-0.07 332.92 -0.14 331.83 -0.22 330.72 C-1.14 315.52 -1.1 300.35 -1.03 285.13 C-1.01 281.29 -1 277.45 -0.99 273.62 C-0.97 266.99 -0.95 260.36 -0.92 253.73 C-0.88 244.15 -0.85 234.57 -0.82 224.99 C-0.76 209.44 -0.71 193.89 -0.65 178.34 C-0.59 163.24 -0.53 148.15 -0.48 133.06 C-0.48 132.12 -0.48 131.19 -0.47 130.23 C-0.46 125.55 -0.44 120.87 -0.42 116.19 C-0.29 77.46 -0.15 38.73 0 0 Z " fill="#75BD32" transform="translate(5,0)"/>
<path d="M0 0 C1.32 0 2.64 0 4 0 C4.33 109.89 4.66 219.78 5 333 C32.39 333 59.78 333 88 333 C88 223.11 88 113.22 88 0 C92.62 0 97.24 0 102 0 C103.32 53.39 103.15 106.79 103.13 160.19 C103.12 170.31 103.13 180.43 103.13 190.55 C103.14 200.51 103.14 210.47 103.13 220.43 C103.13 226.3 103.13 232.17 103.14 238.03 C103.15 269.7 102.75 301.34 102 333 C103.32 333.33 104.64 333.66 106 334 C106 347.2 106 360.4 106 374 C98.78 374.66 91.87 375.14 84.66 375.11 C83.7 375.11 82.73 375.11 81.73 375.11 C78.58 375.11 75.42 375.11 72.27 375.1 C70.07 375.1 67.86 375.09 65.66 375.09 C59.89 375.09 54.12 375.08 48.35 375.07 C42.45 375.06 36.55 375.05 30.65 375.05 C19.1 375.04 7.55 375.02 -4 375 C-4.33 361.47 -4.66 347.94 -5 334 C-3.35 334 -1.7 334 0 334 C-0.07 332.92 -0.14 331.83 -0.22 330.72 C-1.14 315.52 -1.1 300.35 -1.03 285.13 C-1.01 281.29 -1 277.45 -0.99 273.62 C-0.97 266.99 -0.95 260.36 -0.92 253.73 C-0.88 244.15 -0.85 234.57 -0.82 224.99 C-0.76 209.44 -0.71 193.89 -0.65 178.34 C-0.59 163.24 -0.53 148.15 -0.48 133.06 C-0.48 132.12 -0.48 131.19 -0.47 130.23 C-0.46 125.55 -0.44 120.87 -0.42 116.19 C-0.29 77.46 -0.15 38.73 0 0 Z " fill="#3F6324" transform="translate(5,0)"/>
<path d="M0 0 C6.27 0 12.54 0 19 0 C19 109.89 19 219.78 19 333 C12.73 333 6.46 333 0 333 C0 223.11 0 113.22 0 0 Z " fill="#AFE974" transform="translate(11,0)"/>
<path d="M0 0 C0.66 0 1.32 0 2 0 C2 109.89 2 219.78 2 333 C8.27 333 14.54 333 21 333 C21 223.11 21 113.22 21 0 C25.62 0 30.24 0 35 0 C35.33 109.56 35.66 219.12 36 332 C35.34 332 34.68 332 34 332 C34 332.66 34 333.32 34 334 C29.32 334.02 24.64 334.04 19.96 334.05 C18.36 334.06 16.77 334.07 15.17 334.08 C12.89 334.09 10.6 334.09 8.32 334.1 C7.6 334.1 6.88 334.11 6.14 334.11 C4.43 334.11 2.71 334.06 1 334 C0 333 0 333 -0.12 330.74 C-0.12 329.73 -0.12 328.72 -0.12 327.68 C-0.13 326.51 -0.13 325.35 -0.13 324.16 C-0.13 322.86 -0.12 321.57 -0.12 320.24 C-0.12 318.86 -0.12 317.49 -0.12 316.11 C-0.13 312.32 -0.12 308.53 -0.12 304.73 C-0.11 300.65 -0.11 296.56 -0.11 292.48 C-0.11 285.39 -0.11 278.31 -0.11 271.22 C-0.1 260.98 -0.1 250.74 -0.09 240.5 C-0.09 223.88 -0.08 207.27 -0.08 190.65 C-0.07 174.51 -0.06 158.36 -0.05 142.22 C-0.05 141.22 -0.05 140.23 -0.05 139.2 C-0.05 134.22 -0.05 129.23 -0.05 124.24 C-0.04 82.83 -0.02 41.41 0 0 Z " fill="#91D152" transform="translate(9,0)"/>
<path d="M0 0 C2.97 0 5.94 0 9 0 C9.02 42.28 9.04 84.56 9.05 126.83 C9.05 131.82 9.05 136.8 9.05 141.79 C9.06 142.78 9.06 143.78 9.06 144.8 C9.06 160.89 9.07 176.99 9.08 193.08 C9.09 209.58 9.09 226.09 9.09 242.59 C9.1 252.78 9.1 262.97 9.11 273.16 C9.11 280.14 9.11 287.12 9.11 294.09 C9.11 298.13 9.11 302.16 9.12 306.19 C9.12 309.88 9.12 313.56 9.12 317.25 C9.12 319.23 9.12 321.2 9.13 323.18 C9.13 324.34 9.13 325.5 9.12 326.69 C9.12 327.7 9.12 328.71 9.12 329.75 C9 332 9 332 8 333 C5.36 333 2.72 333 0 333 C0 223.11 0 113.22 0 0 Z " fill="#E0FA92" transform="translate(11,0)"/>
<path d="M0 0 C5.61 0 11.22 0 17 0 C17 10.56 17 21.12 17 32 C17.66 32 18.32 32 19 32 C19 21.44 19 10.88 19 0 C26.89 -0.02 34.79 -0.04 42.68 -0.05 C46.36 -0.06 50.04 -0.06 53.71 -0.08 C57.25 -0.09 60.79 -0.09 64.33 -0.09 C66.34 -0.1 68.35 -0.11 70.36 -0.11 C71.58 -0.11 72.8 -0.11 74.06 -0.11 C75.14 -0.12 76.21 -0.12 77.32 -0.12 C80 0 80 0 83 1 C83 11.56 83 22.12 83 33 C84.65 33 86.3 33 88 33 C88 22.44 88 11.88 88 1 C89.32 1 90.64 1 92 1 C92 11.89 92 22.78 92 34 C61.64 34 31.28 34 0 34 C0 22.78 0 11.56 0 0 Z " fill="#77BE36" transform="translate(5,337)"/>
<path d="M0 0 C2.64 0 5.28 0 8 0 C8 109.89 8 219.78 8 333 C5.36 333 2.72 333 0 333 C0 223.11 0 113.22 0 0 Z " fill="#71B432" transform="translate(85,0)"/>
<path d="M0 0 C5.71 -0.02 11.42 -0.04 17.13 -0.05 C19.07 -0.06 21.01 -0.07 22.95 -0.08 C25.75 -0.09 28.55 -0.09 31.35 -0.1 C32.21 -0.1 33.07 -0.11 33.96 -0.11 C38.75 -0.11 43.28 0.19 48 1 C49.94 8.76 48.4 17.01 48 25 C32.16 25 16.32 25 0 25 C0 16.75 0 8.5 0 0 Z " fill="#74BE31" transform="translate(35,339)"/>
<path d="M0 0 C0.99 0 1.98 0 3 0 C3 109.89 3 219.78 3 333 C2.01 333 1.02 333 0 333 C0 223.11 0 113.22 0 0 Z " fill="#538A1A" transform="translate(85,0)"/>
<path d="M0 0 C0.66 0 1.32 0 2 0 C2.33 110.22 2.66 220.44 3 334 C3.99 334.33 4.98 334.66 6 335 C6 347.54 6 360.08 6 373 C-21.72 373 -49.44 373 -78 373 C-78 372.67 -78 372.34 -78 372 C-50.94 372 -23.88 372 4 372 C4 360.12 4 348.24 4 336 C2.68 336 1.36 336 0 336 C0 225.12 0 114.24 0 0 Z " fill="#050E07" transform="translate(104,0)"/>
<path d="M0 0 C7.59 0 15.18 0 23 0 C23 11.22 23 22.44 23 34 C19.37 34 15.74 34 12 34 C12 23.11 12 12.22 12 1 C10.68 1 9.36 1 8 1 C8 11.56 8 22.12 8 33 C6.35 33 4.7 33 3 33 C3 22.44 3 11.88 3 1 C2.01 0.67 1.02 0.34 0 0 Z " fill="#538424" transform="translate(85,337)"/>
<path d="M0 0 C4.62 0 9.24 0 14 0 C14 10.89 14 21.78 14 33 C9.38 33 4.76 33 0 33 C0 22.11 0 11.22 0 0 Z " fill="#A5E163" transform="translate(7,337)"/>
<path d="M0 0 C0.66 0 1.32 0 2 0 C2 10.89 2 21.78 2 33 C6.62 33 11.24 33 16 33 C16 22.11 16 11.22 16 0 C16.33 0 16.66 0 17 0 C17 10.56 17 21.12 17 32 C17.66 32 18.32 32 19 32 C19 21.44 19 10.88 19 0 C39.13 0 59.26 0 80 0 C80 0.33 80 0.66 80 1 C60.2 1 40.4 1 20 1 C20 11.56 20 22.12 20 33 C42.44 33 64.88 33 88 33 C88 22.44 88 11.88 88 1 C89.32 1 90.64 1 92 1 C92 11.89 92 22.78 92 34 C61.64 34 31.28 34 0 34 C0 22.78 0 11.56 0 0 Z " fill="#73A941" transform="translate(5,337)"/>
<path d="M0 0 C2.97 0 5.94 0 9 0 C9 10.56 9 21.12 9 32 C6.03 32 3.06 32 0 32 C0 21.44 0 10.88 0 0 Z " fill="#9ADF5A" transform="translate(25,338)"/>
<path d="M0 0 C2.31 0 4.62 0 7 0 C7.33 10.56 7.66 21.12 8 32 C5.36 32 2.72 32 0 32 C0 21.44 0 10.88 0 0 Z " fill="#E4FB97" transform="translate(8,338)"/>
</svg>
